<svg width="487" height="494" viewBox="0 0 487 494" fill="none" xmlns="http://www.w3.org/2000/svg">
<path d="M157 5.5C206.693 50.6177 268.133 55.2471 441.421 16C468.254 42.6667 508.121 149.5 452.921 363.5C444.281 396.995 428 460 428 460C248 557.5 -12 379.5 7.42107 281" stroke="black" stroke-width="11" stroke-linecap="round"/>
<path d="M362.522 109L347.022 281C341.522 338 343.922 433.1 397.522 357.5" stroke="black" stroke-width="11" stroke-linecap="round"/>
<path d="M334.136 146L307.636 294.5C299.968 334.333 263.334 407.1 178.135 379.5C92.9355 351.9 191.969 326.667 252.136 317.5" stroke="black" stroke-width="11" stroke-linecap="round"/>
<path d="M179.668 250.839C178.868 151.639 207.668 100.839 222.168 87.8388C233.142 78 242.368 72.5388 293.168 79.3388C356.668 87.8388 340.5 125 263.5 129C277.833 132.833 327.438 154 302 231C292.254 260.5 266.748 282 239.169 294C156.679 329.893 74.1684 344 88.6684 250.839" stroke="black" stroke-width="11" stroke-linecap="round"/>
</svg>
